<svg width="93" height="79" fill="none" xmlns="http://www.w3.org/2000/svg"><g filter="url(#a)"><path d="M11.256 10A1.258 1.258 0 0 0 10 11.268v56.465-.001A1.258 1.258 0 0 0 11.256 69h70.48A1.258 1.258 0 0 0 83 67.732V11.267v.001A1.258 1.258 0 0 0 81.736 10h-70.48Zm1.264 2.526h67.963v11.383H12.52V12.526Zm8.253 1.921c-2.063 0-3.744 1.706-3.744 3.774 0 2.069 1.692 3.767 3.744 3.767 2.05 0 3.743-1.7 3.743-3.767 0-2.066-1.682-3.774-3.743-3.774Zm9.336 0c-.258 0-.51.024-.753.076a3.773 3.773 0 0 0-2.697 2.235 3.76 3.76 0 0 0 0 2.925c.572 1.35 1.91 2.304 3.45 2.304 2.05 0 3.743-1.7 3.743-3.767 0-2.066-1.682-3.774-3.744-3.774v.001Zm9.343 0a3.57 3.57 0 0 0-.752.076 3.787 3.787 0 0 0-2.705 2.235 3.743 3.743 0 0 0 0 2.925c.575 1.35 1.918 2.304 3.457 2.304 2.051 0 3.743-1.7 3.743-3.767 0-2.066-1.682-3.774-3.743-3.774v.001Zm24.882 2.506c-.696 0-1.26.566-1.26 1.264 0 .699.564 1.265 1.26 1.265h8.614c.696 0 1.26-.566 1.26-1.265 0-.698-.564-1.264-1.26-1.264h-8.614Zm-43.563.02c.643 0 1.227.582 1.227 1.248 0 .664-.574 1.24-1.227 1.24-.652 0-1.226-.577-1.226-1.24 0-.166.038-.326.103-.474.195-.444.642-.775 1.123-.775Zm9.337 0c.642 0 1.226.582 1.226 1.248 0 .665-.573 1.24-1.226 1.24s-1.227-.577-1.227-1.24c0-.166.036-.326.1-.474.195-.444.645-.775 1.127-.775Zm9.343 0c.643 0 1.227.582 1.227 1.248 0 .665-.574 1.24-1.227 1.24-.653 0-1.236-.577-1.236-1.24 0-.166.037-.326.103-.474.197-.444.651-.775 1.133-.775Zm-26.933 9.46h67.963v40.04H12.518v-40.04Zm37.248 5.911a1.26 1.26 0 0 0-1.143.962L41.942 58.96a1.264 1.264 0 0 0 .896 1.547 1.257 1.257 0 0 0 1.54-.903l6.679-25.665a1.259 1.259 0 0 0-1.29-1.596v.001ZM34.975 35.81a1.257 1.257 0 0 0-.986.421l-8.611 9.36a1.266 1.266 0 0 0 0 1.715l8.611 9.36a1.258 1.258 0 0 0 2.238-.781 1.264 1.264 0 0 0-.39-.925l-7.821-8.51 7.822-8.503c.344-.358.447-.888.26-1.35a1.26 1.26 0 0 0-1.123-.788Zm23.015.002a1.266 1.266 0 0 0-.838 2.136l7.834 8.502-7.835 8.51a1.266 1.266 0 0 0 .029 1.833 1.258 1.258 0 0 0 1.822-.126l8.612-9.36a1.267 1.267 0 0 0 0-1.715l-8.612-9.36a1.255 1.255 0 0 0-1.012-.42Z" fill="#fff"/></g><defs><filter id="a" x="0" y="0" width="93" height="79" filterUnits="userSpaceOnUse" color-interpolation-filters="sRGB"><feFlood flood-opacity="0" result="BackgroundImageFix"/><feColorMatrix in="SourceAlpha" values="0 0 0 0 0 0 0 0 0 0 0 0 0 0 0 0 0 0 127 0" result="hardAlpha"/><feOffset/><feGaussianBlur stdDeviation="5"/><feComposite in2="hardAlpha" operator="out"/><feColorMatrix values="0 0 0 0 1 0 0 0 0 1 0 0 0 0 1 0 0 0 0.4 0"/><feBlend in2="BackgroundImageFix" result="effect1_dropShadow_2_30"/><feBlend in="SourceGraphic" in2="effect1_dropShadow_2_30" result="shape"/></filter></defs></svg>