<svg width="105" height="88" fill="none" xmlns="http://www.w3.org/2000/svg"><g filter="url(#a)"><path d="M45.574 10.001c-2.681 0-4.88 2.193-4.88 4.856l-.001 14.803H14.88c-2.681 0-4.88 2.196-4.88 4.858v28.523c0 2.663 2.2 4.858 4.88 4.858h3.515v8.647c0 .52.28 1 .734 1.26.453.259 1.011.259 1.464-.001l17.255-9.907H59.43c2.681 0 4.88-2.195 4.88-4.858V48.237h2.845l17.255 9.906a1.474 1.474 0 0 0 1.46 0c.453-.26.733-.738.735-1.256v-8.65h3.518c2.68 0 4.877-2.192 4.877-4.856V14.855C95 12.193 92.804 10 90.123 10l-44.55.001Zm0 2.911h44.55c1.107 0 1.946.842 1.946 1.945v28.526c0 1.102-.84 1.944-1.947 1.944h-4.978a1.47 1.47 0 0 0-1.042.426 1.45 1.45 0 0 0-.43 1.035v7.564L68.28 45.52a1.472 1.472 0 0 0-.735-.193H45.574c-1.108 0-1.95-.841-1.95-1.944V14.857c0-1.103.842-1.944 1.95-1.945Zm8.882 11.12c-2.814 0-5.13 2.3-5.13 5.094 0 2.795 2.316 5.08 5.13 5.08 2.813 0 5.114-2.285 5.114-5.08 0-2.794-2.301-5.094-5.114-5.094Zm13.393 0c-2.814 0-5.13 2.3-5.13 5.094 0 2.795 2.316 5.08 5.13 5.08 2.813 0 5.126-2.285 5.126-5.08 0-2.794-2.313-5.094-5.126-5.094Zm13.393 0c-2.814 0-5.13 2.3-5.13 5.094 0 2.795 2.316 5.08 5.13 5.08 2.813 0 5.126-2.285 5.126-5.08 0-2.794-2.313-5.094-5.126-5.094Zm-26.786 2.9c1.228 0 2.183.972 2.183 2.194 0 1.223-.955 2.18-2.183 2.18-1.228 0-2.199-.957-2.199-2.18 0-1.223.97-2.195 2.199-2.195Zm13.393 0c1.228 0 2.195.972 2.195 2.194 0 1.223-.967 2.18-2.195 2.18-1.228 0-2.199-.957-2.199-2.18 0-1.223.97-2.195 2.199-2.195Zm13.393 0c1.228 0 2.195.972 2.195 2.194 0 1.223-.967 2.18-2.195 2.18-1.228 0-2.199-.957-2.199-2.18a2.18 2.18 0 0 1 2.199-2.195Zm-66.36 5.642h25.813v10.808c0 2.662 2.2 4.855 4.88 4.855h15.803v14.804c0 1.103-.84 1.948-1.947 1.948h-21.97a1.473 1.473 0 0 0-.736.192l-15.394 8.83v-7.562a1.448 1.448 0 0 0-.429-1.034 1.469 1.469 0 0 0-1.041-.427h-4.979c-1.107 0-1.946-.844-1.946-1.947V34.52c0-1.103.839-1.944 1.947-1.944l-.001-.001Z" fill="#fff"/></g><defs><filter id="a" x="0" y="0" width="105" height="88" filterUnits="userSpaceOnUse" color-interpolation-filters="sRGB"><feFlood flood-opacity="0" result="BackgroundImageFix"/><feColorMatrix in="SourceAlpha" values="0 0 0 0 0 0 0 0 0 0 0 0 0 0 0 0 0 0 127 0" result="hardAlpha"/><feOffset/><feGaussianBlur stdDeviation="5"/><feComposite in2="hardAlpha" operator="out"/><feColorMatrix values="0 0 0 0 1 0 0 0 0 1 0 0 0 0 1 0 0 0 0.4 0"/><feBlend in2="BackgroundImageFix" result="effect1_dropShadow_2_29"/><feBlend in="SourceGraphic" in2="effect1_dropShadow_2_29" result="shape"/></filter></defs></svg>