<svg width="106" height="89" fill="none" xmlns="http://www.w3.org/2000/svg"><g filter="url(#a)" fill="#fff"><path d="M11.075 37.95h4.05a18.309 18.309 0 0 0 1.308 3.165l-2.864 2.864a1.08 1.08 0 0 0 0 1.522l6.082 6.08c.404.404 1.118.404 1.52 0l2.864-2.863c1.009.533 2.066.971 3.163 1.309v4.049c0 .593.481 1.074 1.075 1.074h8.6c.593 0 1.075-.481 1.075-1.074v-4.051a18.22 18.22 0 0 0 3.162-1.31l2.864 2.864a1.08 1.08 0 0 0 1.522 0l6.082-6.08a1.08 1.08 0 0 0 0-1.522l-2.864-2.864a18.1 18.1 0 0 0 1.307-3.165h4.054c.593 0 1.075-.481 1.075-1.074v-8.6c0-.594-.482-1.076-1.075-1.076h-4.05a18.305 18.305 0 0 0-1.308-3.164l2.864-2.864c.419-.419.419-1.1 0-1.52l-6.084-6.079a1.077 1.077 0 0 0-1.52 0l-2.864 2.864a18.1 18.1 0 0 0-3.165-1.307v-4.053A1.072 1.072 0 0 0 36.875 10h-8.6c-.593 0-1.075.482-1.075 1.075v4.051a18.316 18.316 0 0 0-3.165 1.307l-2.862-2.862a1.077 1.077 0 0 0-1.52 0l-6.082 6.083a1.077 1.077 0 0 0 0 1.52l2.864 2.864a18.235 18.235 0 0 0-1.31 3.163h-4.05c-.593 0-1.075.481-1.075 1.074v8.6c0 .594.482 1.076 1.075 1.076Zm1.075-8.6h3.788c.49 0 .918-.331 1.041-.806a16.054 16.054 0 0 1 1.716-4.145c.249-.424.18-.961-.166-1.308l-2.678-2.678 4.562-4.563 2.679 2.679c.348.348.886.415 1.307.165a15.99 15.99 0 0 1 4.145-1.715c.475-.122.806-.55.806-1.04V12.15h6.45v3.789c0 .49.332.918.807 1.04 1.462.38 2.857.955 4.145 1.716.423.25.96.18 1.307-.165l2.679-2.68 4.562 4.563-2.678 2.68a1.077 1.077 0 0 0-.166 1.306 15.99 15.99 0 0 1 1.715 4.145c.123.475.551.806 1.04.806h3.79v6.45h-3.79c-.49 0-.917.331-1.04.806a16.059 16.059 0 0 1-1.716 4.145c-.249.424-.18.961.166 1.308l2.678 2.678-4.562 4.563-2.679-2.679a1.077 1.077 0 0 0-1.307-.165c-1.29.76-2.685 1.34-4.147 1.717-.472.123-.804.551-.804 1.04V53h-6.45v-3.789c0-.49-.33-.918-.806-1.04a16.037 16.037 0 0 1-4.147-1.718 1.078 1.078 0 0 0-1.307.165l-2.68 2.679-4.562-4.563 2.679-2.678a1.07 1.07 0 0 0 .168-1.305 15.986 15.986 0 0 1-1.716-4.145 1.075 1.075 0 0 0-1.04-.807h-3.79v-6.45Z"/><path d="M32.576 42.25c5.334 0 9.675-4.341 9.675-9.675 0-5.335-4.341-9.676-9.675-9.676-5.335 0-9.675 4.341-9.675 9.676 0 5.334 4.34 9.675 9.675 9.675Zm0-17.2c4.15 0 7.525 3.375 7.525 7.525S36.725 40.1 32.576 40.1c-4.15 0-7.526-3.375-7.526-7.525s3.376-7.525 7.526-7.525ZM92.429 43.304l-6.082-6.082a1.077 1.077 0 0 0-1.52 0l-2.864 2.864a18.092 18.092 0 0 0-3.165-1.308v-4.053c0-.593-.482-1.074-1.075-1.074h-8.6c-.593 0-1.075.481-1.075 1.074v4.051a18.3 18.3 0 0 0-3.165 1.307L62.02 37.22a1.077 1.077 0 0 0-1.52 0l-6.083 6.082a1.077 1.077 0 0 0 0 1.52l2.864 2.864a18.268 18.268 0 0 0-1.31 3.165h-4.046c-.593 0-1.075.481-1.075 1.074v8.6c0 .594.482 1.075 1.075 1.075h4.05a18.238 18.238 0 0 0 1.31 3.165l-2.864 2.864a1.077 1.077 0 0 0 0 1.52l6.083 6.08c.403.404 1.117.404 1.52 0l2.864-2.864c1.008.534 2.066.972 3.162 1.31v4.05c0 .594.482 1.075 1.075 1.075h8.6c.593 0 1.075-.481 1.075-1.074v-4.051a18.232 18.232 0 0 0 3.162-1.31l2.864 2.864a1.08 1.08 0 0 0 1.522 0l6.082-6.08c.419-.419.419-1.1 0-1.52l-2.864-2.864a18.271 18.271 0 0 0 1.31-3.165h4.05c.592 0 1.074-.481 1.074-1.074v-8.6c0-.594-.482-1.075-1.075-1.075h-4.05a18.245 18.245 0 0 0-1.31-3.165l2.864-2.864c.42-.42.42-1.099 0-1.518Zm-4.958 3.438a1.074 1.074 0 0 0-.166 1.305c.761 1.29 1.34 2.683 1.716 4.147.123.476.55.807 1.04.807h3.79v6.45h-3.79c-.49 0-.917.331-1.04.806a15.997 15.997 0 0 1-1.716 4.147c-.249.422-.18.96.166 1.306l2.679 2.678-4.563 4.56-2.679-2.678a1.08 1.08 0 0 0-1.307-.166c-1.29.761-2.685 1.34-4.147 1.718a1.078 1.078 0 0 0-.804 1.04v3.789H70.2v-3.789c0-.49-.331-.918-.807-1.04a16.037 16.037 0 0 1-4.147-1.718 1.08 1.08 0 0 0-1.307.165l-2.679 2.679-4.562-4.56 2.678-2.68a1.07 1.07 0 0 0 .166-1.304 15.974 15.974 0 0 1-1.716-4.147 1.07 1.07 0 0 0-1.038-.806H53V53h3.788c.49 0 .918-.331 1.041-.806a15.993 15.993 0 0 1 1.716-4.148c.249-.42.18-.958-.166-1.305l-2.678-2.678 4.562-4.563 2.679 2.679c.346.348.887.412 1.307.165a15.99 15.99 0 0 1 4.145-1.715c.474-.123.806-.551.806-1.041V35.8h6.45v3.789c0 .49.33.918.806 1.04 1.462.38 2.857.955 4.145 1.716.423.247.961.18 1.307-.165l2.679-2.679 4.563 4.563-2.679 2.678Z"/><path d="M73.425 46.551c-5.334 0-9.675 4.341-9.675 9.675 0 5.335 4.34 9.675 9.675 9.675 5.334 0 9.675-4.34 9.675-9.675 0-5.334-4.34-9.675-9.675-9.675Zm0 17.2c-4.15 0-7.525-3.375-7.525-7.525s3.376-7.524 7.525-7.524c4.15 0 7.525 3.375 7.525 7.524 0 4.15-3.375 7.525-7.525 7.525Z"/></g><defs><filter id="a" x="0" y="0" width="106" height="88.8" filterUnits="userSpaceOnUse" color-interpolation-filters="sRGB"><feFlood flood-opacity="0" result="BackgroundImageFix"/><feColorMatrix in="SourceAlpha" values="0 0 0 0 0 0 0 0 0 0 0 0 0 0 0 0 0 0 127 0" result="hardAlpha"/><feOffset/><feGaussianBlur stdDeviation="5"/><feComposite in2="hardAlpha" operator="out"/><feColorMatrix values="0 0 0 0 1 0 0 0 0 1 0 0 0 0 1 0 0 0 0.4 0"/><feBlend in2="BackgroundImageFix" result="effect1_dropShadow_2_31"/><feBlend in="SourceGraphic" in2="effect1_dropShadow_2_31" result="shape"/></filter></defs></svg>